<svg width="347" height="277" viewBox="0 0 347 277" fill="none" xmlns="http://www.w3.org/2000/svg">
<path d="M3.05835 8.49941L0.735107 5.14394C40.5816 -6.03696 57.5214 3.19156 84.8858 27.8592L221.695 178.092V207.002L101.406 74.581V208.714C101.406 222.866 110.062 229.548 123.864 229.201V232.557H66.5585V229.201C78.6792 228.884 88.2415 221.842 88.2415 209.133V59.0931C54.2911 14.9008 35.5665 1.09527 3.05835 8.49941Z" fill="white"/>
<path d="M346.814 273.23C310.442 280.796 290.257 277.287 255.05 241.995H279.444C298.861 263.019 311.193 272.558 345.674 270.152L346.814 273.23Z" fill="white"/>
<path d="M141.417 21.8566V24.6964C182.72 26.78 217.54 84.6236 232.279 162.667V205.498C232.279 220.208 225.054 228.657 210.11 229.827V232.558H271.141V229.827C256.63 228.692 249.569 219.64 249.569 205.498V162.667C267.141 67.9953 309.351 24.6964 335.501 24.6964V21.8566C282.813 26.1331 265.181 71.9007 247.934 116.667C246.476 120.451 245.022 124.227 243.548 127.971C241.737 123.409 239.967 118.791 238.194 114.165C220.638 68.3619 202.813 21.8566 141.417 21.8566Z" fill="white"/>
</svg>
